<svg width="27" height="27" viewBox="0 0 27 27" fill="none" xmlns="http://www.w3.org/2000/svg">
<path d="M15.6444 13.5062L26.5531 2.58629C26.6947 2.44642 26.8071 2.27984 26.8838 2.0962C26.9605 1.91256 27 1.71552 27 1.5165C27 1.31748 26.9605 1.12044 26.8838 0.936797C26.8071 0.753158 26.6947 0.586576 26.5531 0.446708C26.268 0.165655 25.8837 0.00810018 25.4834 0.00810018C25.0831 0.00810018 24.6988 0.165655 24.4137 0.446708L13.505 11.3667L2.58626 0.446708C2.44641 0.305122 2.27984 0.192709 2.09622 0.115986C1.9126 0.0392626 1.71558 -0.000244141 1.51658 -0.000244141C1.31758 -0.000244141 1.12056 0.0392626 0.936941 0.115986C0.753322 0.192709 0.586757 0.305122 0.446904 0.446708C0.165881 0.731846 0.00834343 1.11613 0.00834343 1.5165C0.00834343 1.91687 0.165881 2.30115 0.446904 2.58629L11.3657 13.5062L0.446904 24.4161C0.305333 24.556 0.192932 24.7226 0.116217 24.9062C0.0395025 25.0898 0 25.2869 0 25.4859C0 25.6849 0.0395025 25.882 0.116217 26.0656C0.192932 26.2492 0.305333 26.4158 0.446904 26.5557C0.730723 26.8392 1.11545 26.9984 1.51658 26.9984C1.91771 26.9984 2.30244 26.8392 2.58626 26.5557L13.505 15.6458L24.4137 26.5557C24.698 26.8387 25.0823 26.9983 25.4834 26.9998C25.7826 26.9995 26.075 26.9106 26.3237 26.7442C26.5724 26.5778 26.7662 26.3415 26.8806 26.065C26.9951 25.7886 27.0251 25.4844 26.9668 25.1909C26.9085 24.8974 26.7645 24.6278 26.5531 24.4161L15.6444 13.5062Z" fill="#F25B26"/>
</svg>
