<svg width="31" height="21" viewBox="0 0 31 21" fill="none" xmlns="http://www.w3.org/2000/svg">
<path d="M30.5559 0.429265C30.4134 0.293168 30.2439 0.185145 30.0571 0.111427C29.8703 0.0377095 29.67 -0.000244141 29.4676 -0.000244141C29.2653 -0.000244141 29.065 0.0377095 28.8782 0.111427C28.6914 0.185145 28.5219 0.293168 28.3794 0.429265L10.3744 17.4955L2.5777 10.1095C2.28714 9.85301 1.90283 9.71337 1.50573 9.72001C1.10864 9.72665 0.72977 9.87904 0.448939 10.1451C0.168108 10.4111 0.00724504 10.77 0.0002388 11.1462C-0.00676744 11.5224 0.140631 11.8864 0.41138 12.1617L9.29124 20.5738C9.4331 20.7091 9.60187 20.8164 9.7878 20.8895C9.97372 20.9627 10.1731 21.0001 10.3744 20.9998C10.7806 20.9984 11.1698 20.8453 11.4576 20.5738L30.5559 2.48147C30.8405 2.20798 31 1.83939 31 1.45537C31 1.07135 30.8405 0.702759 30.5559 0.429265Z" fill="#3DC644"/>
</svg>
